<svg width="9" height="15" viewBox="0 0 9 15" fill="none" xmlns="http://www.w3.org/2000/svg">
<g clip-path="url(#clip0_55_565)">
<path d="M8.53239 7.15717C8.53239 7.28506 8.50841 7.40879 8.46045 7.52836C8.41249 7.64857 8.34855 7.74864 8.26862 7.82857L3.85656 12.2406C3.68072 12.4165 3.45692 12.5044 3.18516 12.5044C2.91341 12.5044 2.68961 12.4165 2.51376 12.2406C2.33792 12.0648 2.25 11.841 2.25 11.5692C2.25 11.2975 2.33792 11.0737 2.51376 10.8978L6.25442 7.15717L2.51376 3.41652C2.33792 3.24067 2.25 3.01687 2.25 2.74512C2.25 2.47336 2.33792 2.24956 2.51376 2.07372C2.68961 1.89787 2.91341 1.80995 3.18516 1.80995C3.45692 1.80995 3.68072 1.89787 3.85656 2.07372L8.26862 6.48577C8.36454 6.58169 8.43232 6.68559 8.47196 6.79749C8.51224 6.90939 8.53239 7.02929 8.53239 7.15717Z" fill="#AC181B"/>
</g>
<defs>
<clipPath id="clip0_55_565">
<rect width="14" height="8.16667" fill="white" transform="matrix(0 -1 1 0 0.5 14.4001)"/>
</clipPath>
</defs>
</svg>
