<svg width="12" height="21" viewBox="0 0 12 21" fill="none" xmlns="http://www.w3.org/2000/svg">
<g clip-path="url(#clip0_55_495)">
<path d="M11.7208 10.0596C11.7208 10.2389 11.6872 10.4125 11.6199 10.5802C11.5527 10.7488 11.463 10.8892 11.3509 11.0013L5.16254 17.1896C4.91591 17.4363 4.602 17.5596 4.22084 17.5596C3.83967 17.5596 3.52577 17.4363 3.27913 17.1896C3.0325 16.943 2.90918 16.6291 2.90918 16.2479C2.90918 15.8667 3.0325 15.5528 3.27913 15.3062L8.52577 10.0596L3.27913 4.81293C3.0325 4.5663 2.90918 4.2524 2.90918 3.87123C2.90918 3.49006 3.0325 3.17616 3.27913 2.92953C3.52577 2.68289 3.83967 2.55957 4.22084 2.55957C4.602 2.55957 4.91591 2.68289 5.16254 2.92953L11.3509 9.11787C11.4854 9.2524 11.5805 9.39814 11.6361 9.55509C11.6926 9.71204 11.7208 9.8802 11.7208 10.0596Z" fill="#690406"/>
</g>
<defs>
<clipPath id="clip0_55_495">
<rect width="19.6364" height="11.4545" fill="white" transform="matrix(0 -1 1 0 0.45459 20.2188)"/>
</clipPath>
</defs>
</svg>
