<svg width="12" height="21" viewBox="0 0 12 21" fill="none" xmlns="http://www.w3.org/2000/svg">
<g clip-path="url(#clip0_55_491)">
<path d="M0.188219 10.0596C0.188219 10.2389 0.221852 10.4125 0.289117 10.5802C0.356381 10.7488 0.446068 10.8892 0.558175 11.0013L6.74651 17.1896C6.99315 17.4363 7.30705 17.5596 7.68822 17.5596C8.06939 17.5596 8.38329 17.4363 8.62992 17.1896C8.87656 16.943 8.99988 16.6291 8.99988 16.2479C8.99988 15.8667 8.87656 15.5528 8.62992 15.3062L3.38329 10.0596L8.62992 4.81293C8.87656 4.5663 8.99988 4.2524 8.99988 3.87123C8.99988 3.49006 8.87656 3.17616 8.62992 2.92953C8.38329 2.68289 8.06939 2.55957 7.68822 2.55957C7.30705 2.55957 6.99315 2.68289 6.74651 2.92953L0.558175 9.11787C0.423646 9.2524 0.328579 9.39814 0.272973 9.55509C0.216471 9.71204 0.188219 9.8802 0.188219 10.0596Z" fill="#690406"/>
</g>
<defs>
<clipPath id="clip0_55_491">
<rect width="19.6364" height="11.4545" fill="white" transform="matrix(0 -1 -1 0 11.4546 20.2188)"/>
</clipPath>
</defs>
</svg>
