<svg width="9" height="15" viewBox="0 0 9 15" fill="none" xmlns="http://www.w3.org/2000/svg">
<g clip-path="url(#clip0_55_557)">
<path d="M0.467614 7.15717C0.467614 7.28506 0.491593 7.40879 0.53955 7.52836C0.587507 7.64857 0.65145 7.74864 0.731379 7.82857L5.14344 12.2406C5.31928 12.4165 5.54308 12.5044 5.81484 12.5044C6.08659 12.5044 6.31039 12.4165 6.48624 12.2406C6.66208 12.0648 6.75 11.841 6.75 11.5692C6.75 11.2975 6.66208 11.0737 6.48624 10.8978L2.74558 7.15717L6.48624 3.41652C6.66208 3.24067 6.75 3.01687 6.75 2.74512C6.75 2.47336 6.66208 2.24956 6.48624 2.07372C6.31039 1.89787 6.08659 1.80995 5.81484 1.80995C5.54308 1.80995 5.31928 1.89787 5.14344 2.07372L0.731379 6.48577C0.635464 6.58169 0.567685 6.68559 0.52804 6.79749C0.487756 6.90939 0.467614 7.02929 0.467614 7.15717Z" fill="#AC181B"/>
</g>
<defs>
<clipPath id="clip0_55_557">
<rect width="14" height="8.16667" fill="white" transform="matrix(0 -1 -1 0 8.5 14.4001)"/>
</clipPath>
</defs>
</svg>
