<svg width="24" height="25" viewBox="0 0 24 25" fill="none" xmlns="http://www.w3.org/2000/svg">
<path d="M4 13.5V21.5H11V13.5H4ZM12 13.5V21.5H19V13.5H12ZM20 13.5V22.5H3V13.5H2V7.5H5.04L5 7C5 6.07174 5.36875 5.1815 6.02513 4.52513C6.6815 3.86875 7.57174 3.5 8.5 3.5C9.77 3.5 10.89 4.18 11.5 5.2C12.11 4.18 13.23 3.5 14.5 3.5C15.4283 3.5 16.3185 3.86875 16.9749 4.52513C17.6313 5.1815 18 6.07174 18 7L17.96 7.5H21V13.5H20ZM3 8.5V12.5H11V8.5H3ZM20 12.5V8.5H12V12.5H20ZM16.95 7.5L17 7C17 6.33696 16.7366 5.70107 16.2678 5.23223C15.7989 4.76339 15.163 4.5 14.5 4.5C13.837 4.5 13.2011 4.76339 12.7322 5.23223C12.2634 5.70107 12 6.33696 12 7V7.5H16.95ZM11 7.5V7C11 6.33696 10.7366 5.70107 10.2678 5.23223C9.79893 4.76339 9.16304 4.5 8.5 4.5C7.83696 4.5 7.20107 4.76339 6.73223 5.23223C6.26339 5.70107 6 6.33696 6 7L6.05 7.5H11Z" fill="#FF4143"/>
</svg>
