<svg width="32" height="31" viewBox="0 0 32 31" fill="none" xmlns="http://www.w3.org/2000/svg">
<g clip-path="url(#clip0_55_754)">
<path d="M13.3117 5.33317C14.3089 5.00917 15.4016 4.96955 16.4893 5.40473L20.3195 6.99918C20.5085 7.09548 20.6012 7.3808 20.5049 7.56981C20.4086 7.75882 20.5013 8.04414 20.6903 8.14045L21.6265 8.54601C21.8098 8.63468 22.033 8.54008 22.1568 8.29483C22.309 7.9962 22.3619 7.95533 22.726 8.10989L24.5749 8.94598C24.9227 9.11844 24.9884 9.26741 24.8921 9.45642L23.4903 12.9086C23.3978 13.1579 23.1969 13.3162 22.966 13.2366L21.3155 12.5112C21.1265 12.4149 21.0621 12.1582 21.1301 11.9405C21.1982 11.7228 21.1419 11.4572 20.9447 11.3699L20.0003 10.997C19.7216 10.8967 19.6093 10.8906 19.3727 11.2498C19.2148 11.4919 19.0633 11.5159 18.8863 11.4567C18.7098 11.3989 18.7349 11.4081 18.5377 11.3303C18.2941 11.2359 18.137 11.2523 18.0053 11.5364L15.7795 17.3066C16.3001 17.4529 16.4856 18.0235 16.3393 18.5442L13.0184 26.7206C12.5897 27.333 12.1118 27.8038 11.5383 27.9901C10.9648 28.1764 10.4962 28.171 9.93055 27.8816C8.65382 27.3501 8.23665 26.0662 8.62548 24.8358L11.9464 16.6594C12.0427 16.4704 12.2802 16.2355 12.5655 16.1428C12.7082 16.0965 12.9921 16.0042 13.1811 16.1005L15.1144 11.3716C15.4982 10.6161 15.0539 9.97184 14.2978 9.58661L13.8701 9.38651C12.9293 8.90359 11.8135 8.97433 10.6723 9.34515L10.1045 9.52964C9.96184 9.57599 9.82918 9.42983 9.86913 9.29067L10.3992 8.01441C10.9292 6.73815 12.0278 5.75034 13.3117 5.33317ZM12.8482 3.90659C11.1363 4.46282 9.65612 5.73234 9.1353 7.47876L8.60525 8.75502C8.31775 9.32159 8.40686 10.0812 8.87616 10.5596C9.34689 11.0376 10.0088 11.1379 10.578 10.953L11.2899 10.7217C12.0017 10.4904 12.8063 10.5444 13.3762 10.8324L13.7542 11.025L12.1134 14.7125L11.9708 14.7589C11.2594 14.99 10.7814 15.4607 10.537 16.171L7.21608 24.3474C6.44488 26.3329 7.32776 28.5696 9.31275 29.3441C10.2086 29.6839 11.0132 29.7379 12.0161 29.412C13.1545 29.0422 14.0169 28.2888 14.3094 27.2474L17.6303 19.071C17.87 18.3623 17.7809 17.6026 17.4065 16.9357L19.0972 12.9165C19.1919 12.6981 19.4728 12.6162 19.5252 12.7774C19.6643 13.2054 20.135 13.6833 20.6557 13.8296L22.3061 14.5551C22.8268 14.7013 23.3002 14.7053 23.7263 14.5668C24.2969 14.3814 24.7748 13.9107 24.9182 13.3909L26.3201 9.93877C26.8016 8.99372 26.179 7.90272 25.2004 7.46363L23.5485 6.7386C23.1705 6.54599 22.6971 6.54208 22.1284 6.72687L21.9857 6.77323C21.8467 6.34525 21.3759 5.86732 20.8567 5.7206L17.0265 4.12615C15.7049 3.45155 14.2805 3.44121 12.8539 3.90473L12.8482 3.90659Z" fill="#FF4143"/>
</g>
<defs>
<clipPath id="clip0_55_754">
<rect width="24" height="24" fill="white" transform="translate(0.87915 7.79553) rotate(-18)"/>
</clipPath>
</defs>
</svg>
