<svg width="24" height="25" viewBox="0 0 24 25" fill="none" xmlns="http://www.w3.org/2000/svg">
<path fill-rule="evenodd" clip-rule="evenodd" d="M12 1.75C12.199 1.75 12.3897 1.82902 12.5304 1.96967C12.671 2.11032 12.75 2.30109 12.75 2.5V4.69L14.47 2.97C14.6122 2.83752 14.8003 2.7654 14.9946 2.76883C15.1889 2.77225 15.3743 2.85097 15.5117 2.98838C15.6491 3.12579 15.7278 3.31118 15.7312 3.50548C15.7346 3.69978 15.6625 3.88783 15.53 4.03L12.75 6.81V11.201L16.552 9.006L17.57 5.208C17.5955 5.11286 17.6395 5.02366 17.6994 4.94551C17.7594 4.86736 17.8341 4.80178 17.9194 4.75252C18.0047 4.70326 18.0989 4.67128 18.1965 4.65841C18.2942 4.64554 18.3934 4.65202 18.4885 4.6775C18.5837 4.70298 18.6729 4.74694 18.751 4.80689C18.8292 4.86684 18.8948 4.94159 18.944 5.02688C18.9933 5.11217 19.0253 5.20633 19.0381 5.30398C19.051 5.40163 19.0445 5.50086 19.019 5.596L18.389 7.946L20.285 6.851C20.4572 6.75311 20.6611 6.7273 20.8522 6.77919C21.0434 6.83108 21.2062 6.95646 21.3052 7.12798C21.4043 7.29949 21.4314 7.50322 21.3808 7.69469C21.3302 7.88616 21.2059 8.04984 21.035 8.15L19.14 9.244L21.49 9.874C21.6822 9.92558 21.846 10.0514 21.9454 10.2237C22.0448 10.3961 22.0716 10.6009 22.02 10.793C21.9685 10.9851 21.8427 11.1489 21.6703 11.2483C21.498 11.3477 21.2932 11.3746 21.101 11.323L17.303 10.305L13.5 12.5L17.302 14.695L21.1 13.677C21.2923 13.6255 21.4972 13.6526 21.6695 13.7522C21.8419 13.8518 21.9676 14.0157 22.019 14.208C22.0705 14.4003 22.0435 14.6051 21.9439 14.7775C21.8443 14.9498 21.6803 15.0755 21.488 15.127L19.139 15.756L21.035 16.851C21.121 16.8999 21.1965 16.9653 21.2571 17.0435C21.3177 17.1216 21.3622 17.211 21.3881 17.3065C21.4141 17.4019 21.4208 17.5016 21.4081 17.5997C21.3953 17.6977 21.3633 17.7923 21.3139 17.878C21.2644 17.9637 21.1985 18.0387 21.1199 18.0988C21.0414 18.1588 20.9517 18.2028 20.8561 18.2281C20.7604 18.2534 20.6607 18.2595 20.5627 18.2461C20.4648 18.2327 20.3704 18.2 20.285 18.15L18.389 17.055L19.019 19.404C19.0445 19.4991 19.051 19.5984 19.0381 19.696C19.0253 19.7937 18.9933 19.8878 18.944 19.9731C18.8948 20.0584 18.8292 20.1332 18.751 20.1931C18.6729 20.2531 18.5837 20.297 18.4885 20.3225C18.3934 20.348 18.2942 20.3545 18.1965 20.3416C18.0989 20.3287 18.0047 20.2967 17.9194 20.2475C17.8341 20.1982 17.7594 20.1326 17.6994 20.0545C17.6395 19.9763 17.5955 19.8871 17.57 19.792L16.552 15.994L12.75 13.8V18.19L15.53 20.97C15.6017 21.0392 15.6589 21.1219 15.6982 21.2134C15.7376 21.3049 15.7583 21.4033 15.7592 21.5028C15.7601 21.6024 15.7412 21.7012 15.7035 21.7934C15.6659 21.8856 15.6102 21.9693 15.5398 22.0398C15.4695 22.1102 15.3857 22.166 15.2936 22.2037C15.2014 22.2415 15.1027 22.2605 15.0031 22.2597C14.9035 22.2589 14.8051 22.2382 14.7136 22.199C14.622 22.1597 14.5393 22.1026 14.47 22.031L12.75 20.311V22.5C12.75 22.6989 12.671 22.8897 12.5304 23.0303C12.3897 23.171 12.199 23.25 12 23.25C11.8011 23.25 11.6104 23.171 11.4697 23.0303C11.3291 22.8897 11.25 22.6989 11.25 22.5V20.31L9.53004 22.03C9.38787 22.1625 9.19982 22.2346 9.00552 22.2312C8.81122 22.2277 8.62583 22.149 8.48842 22.0116C8.35101 21.8742 8.27229 21.6888 8.26887 21.4945C8.26544 21.3002 8.33756 21.1122 8.47004 20.97L11.25 18.19V13.799L7.44804 15.994L6.43004 19.792C6.40456 19.8871 6.3606 19.9763 6.30065 20.0545C6.24071 20.1326 6.16595 20.1982 6.08066 20.2475C5.99537 20.2967 5.90121 20.3287 5.80356 20.3416C5.70591 20.3545 5.60668 20.348 5.51154 20.3225C5.4164 20.297 5.32721 20.2531 5.24906 20.1931C5.1709 20.1332 5.10533 20.0584 5.05606 19.9731C5.0068 19.8878 4.97482 19.7937 4.96195 19.696C4.94908 19.5984 4.95557 19.4991 4.98104 19.404L5.61104 17.054L3.71504 18.15C3.54265 18.2495 3.33781 18.2764 3.14559 18.2248C2.95336 18.1732 2.7895 18.0474 2.69004 17.875C2.59059 17.7026 2.56368 17.4978 2.61526 17.3055C2.66683 17.1133 2.79265 16.9495 2.96504 16.85L4.86104 15.756L2.51104 15.126C2.41339 15.1028 2.32137 15.0603 2.24045 15.001C2.15953 14.9416 2.09135 14.8666 2.03994 14.7804C1.98853 14.6942 1.95495 14.5986 1.94118 14.4992C1.92741 14.3997 1.93373 14.2986 1.95976 14.2016C1.9858 14.1047 2.03103 14.014 2.09277 13.9349C2.1545 13.8558 2.23149 13.7898 2.31917 13.741C2.40685 13.6922 2.50344 13.6614 2.60322 13.6506C2.703 13.6398 2.80393 13.6491 2.90004 13.678L6.69804 14.695L10.5 12.5L6.69804 10.305L2.90004 11.323C2.80483 11.3485 2.70554 11.355 2.60783 11.3421C2.51012 11.3292 2.41591 11.2971 2.33057 11.2478C2.24523 11.1985 2.17044 11.1329 2.11047 11.0547C2.0505 10.9765 2.00652 10.8872 1.98104 10.792C1.95557 10.6968 1.94909 10.5975 1.96199 10.4998C1.97489 10.4021 2.0069 10.3079 2.05621 10.2225C2.10552 10.1372 2.17115 10.0624 2.24936 10.0024C2.32758 9.94246 2.41683 9.89848 2.51204 9.873L4.86104 9.244L2.96504 8.15C2.87968 8.10075 2.80486 8.03518 2.74484 7.95702C2.68483 7.87885 2.64079 7.78963 2.61526 7.69445C2.58972 7.59927 2.58318 7.5 2.59601 7.40229C2.60885 7.30458 2.6408 7.21036 2.69004 7.125C2.73929 7.03964 2.80486 6.96482 2.88303 6.9048C2.96119 6.84478 3.05041 6.80075 3.14559 6.77522C3.33781 6.72364 3.54265 6.75054 3.71504 6.85L5.61004 7.946L4.98004 5.597C4.92859 5.40472 4.95563 5.19987 5.05521 5.02753C5.15479 4.85518 5.31876 4.72945 5.51104 4.678C5.70332 4.62655 5.90817 4.65359 6.08052 4.75317C6.25286 4.85275 6.37859 5.01672 6.43004 5.209L7.44704 9.007L11.25 11.2V6.81L8.47004 4.03C8.33756 3.88783 8.26544 3.69978 8.26887 3.50548C8.27229 3.31118 8.35101 3.12579 8.48842 2.98838C8.62583 2.85097 8.81122 2.77225 9.00552 2.76883C9.19982 2.7654 9.38787 2.83752 9.53004 2.97L11.25 4.69V2.5C11.25 2.30109 11.3291 2.11032 11.4697 1.96967C11.6104 1.82902 11.8011 1.75 12 1.75Z" fill="#FF4143"/>
</svg>
