<svg width="24" height="25" viewBox="0 0 24 25" fill="none" xmlns="http://www.w3.org/2000/svg">
<path d="M6.03999 8.07205C3.57999 8.62905 2.34999 8.90705 2.05699 9.84805C1.76499 10.788 2.60299 11.769 4.27999 13.73L4.71399 14.237C5.18999 14.794 5.42899 15.073 5.53599 15.417C5.64299 15.762 5.60699 16.134 5.53499 16.877L5.46899 17.554C5.21599 20.171 5.08899 21.479 5.85499 22.06C6.62099 22.641 7.77299 22.111 10.075 21.051L10.672 20.777C11.326 20.475 11.653 20.325 12 20.325C12.347 20.325 12.674 20.475 13.329 20.777L13.924 21.051C16.227 22.111 17.379 22.641 18.144 22.061C18.911 21.479 18.784 20.171 18.531 17.554M19.72 13.73C21.397 11.77 22.235 10.789 21.943 9.84805C21.651 8.90705 20.42 8.62805 17.96 8.07205L17.324 7.92805C16.625 7.77005 16.276 7.69105 15.995 7.47805C15.714 7.26505 15.535 6.94205 15.175 6.29605L14.847 5.70805C13.58 3.43605 12.947 2.30005 12 2.30005C11.053 2.30005 10.42 3.43605 9.15299 5.70805" stroke="#FF4143" stroke-width="1.5" stroke-linecap="round"/>
</svg>
